:SAMPLES-PER-SECOND 30
:FULLY-SPECIFIED
:DEGREES
244
root  34.92168817 36.56802741 -14.11328353 10.97294998 -1.802541256 4.382529259
lowerback  -8.207718849 1.091050029 1.060739875
upperback  -4.3510499 1.976729989 -4.743959904
thorax  0.2894620001 1.163339972 -5.357590199
lowerneck  -11.64169979 -9.096759796 -4.95649004
upperneck  11.94550037 -12.88119984 7.746809959
head  6.366970062 -6.034039974 2.017849922
lclavicle  0 -4.497500157e-015 -2.743230041e-014
lhumerus  -48.44609833 30.11829948 60.70029831
lradius  0.0176471211 -6.507048965e-006 28.4659996
lwrist  3.192251654e-007 -3.790274832e-007 -30.96999931
lhand  -4.408620093e-031 -36.77819824 -10.44270039
lfingers  90 7.125020027 -90
lthumb  94.71023339 -25.28705114 100.9178446
rclavicle  0 -4.497500157e-015 -2.743230041e-014
rhumerus  52.82009506 -23.24129868 -49.42089844
rradius  -5.16745672e-007 2.214343908e-008 43.15169907
rwrist  0.0006954420824 -0.004670973402 -161.6040039
rhand  -1.769276438e-031 3.713059902 -6.609200001
rfingers  -90 -7.125020027 -90
rthumb  -84.76703309 -9.290375165 -60.4328168
rfemur  -12.27638817 13.80145741 11.79213524
rtibia  -0.6381825805 -1.514507294 19.00310326
rfoot  0.6929576397 -21.6486187 -36.57858658
rtoes  3.814760155 19.64746023 -101.2168874
lfemur  -5.013207912 -17.00840378 -23.02418518
ltibia  7.019254208 0.1180464104 7.037647724
lfoot  0.6945806742 -22.4338932 34.86392212
ltoes  -8.636013038 -18.10864396 -116.0419498
245
root  34.92314797 36.56852902 -14.11076794 10.96607971 -1.835997462 4.37768364
lowerback  -8.190790176 1.062100053 1.01251018
upperback  -4.35148859 1.940760016 -4.734449863
thorax  0.2746930122 1.145679951 -5.323599815
lowerneck  -11.64859962 -9.0729599 -4.902880192
upperneck  11.95119953 -12.8579998 7.735209942
head  6.364210129 -6.021699905 2.008330107
lclavicle  0 -4.497500157e-015 -2.743230041e-014
lhumerus  -48.48550034 30.25869942 60.56340027
lradius  0.0174081903 -6.507048965e-006 28.42550087
lwrist  3.192251654e-007 -3.790274832e-007 -31.14710045
lhand  -4.411482276e-031 -36.82789993 -10.42749977
lfingers  90 7.125020027 -90
lthumb  94.73009732 -25.27043971 100.9695475
rclavicle  0 -4.497500157e-015 -2.743230041e-014
rhumerus  52.48670197 -23.32300186 -49.5279007
rradius  -5.16745672e-007 2.214343908e-008 43.74760056
rwrist  0.0006954420824 -0.004670973402 -161.8829956
rhand  -1.7689683e-031 3.555949926 -6.662799835
rfingers  -90 -7.125020027 -90
rthumb  -84.83104712 -9.23476954 -60.59055663
rfemur  -12.26212692 13.7888813 11.79292679
rtibia  -0.6298596263 -1.514320374 18.97935104
rfoot  0.7172312737 -21.66555977 -36.51961899
rtoes  3.781161443 19.65370653 -101.1169754
lfemur  -5.014221668 -17.01063347 -23.02859879
ltibia  7.011187553 0.105589062 7.059689522
lfoot  0.6908991933 -22.41820335 34.87633133
ltoes  -8.623854512 -18.11428585 -116.002838
246
root  34.92316299 36.56942112 -14.10839201 10.96911144 -1.857766867 4.374655247
lowerback  -8.175800323 1.056609988 0.9936729074
upperback  -4.352261543 1.933339953 -4.724820137
thorax  0.2664200068 1.141729951 -5.303629875
lowerneck  -11.63640022 -9.082639694 -4.94822979
upperneck  11.94209957 -12.8696003 7.772280216
head  6.365550041 -6.027309895 2.025969982
lclavicle  0 -4.497500157e-015 -2.743230041e-014
lhumerus  -48.47570038 30.29509926 60.55630112
lradius  0.01714958996 -6.507048965e-006 28.39279747
lwrist  3.192251654e-007 -3.790274832e-007 -31.19339943
lhand  -4.41163801e-031 -36.83060074 -10.43150043
lfingers  90 7.125020027 -90
lthumb  94.73217371 -25.27425092 100.9727588
rclavicle  0 -4.497500157e-015 -2.743230041e-014
rhumerus  52.00239944 -23.39410019 -49.26689911
rradius  -5.16745672e-007 2.214343908e-008 44.36510086
rwrist  0.0006954420824 -0.004670973402 -162.6000061
rhand  -1.769033692e-031 3.589869976 -6.454050064
rfingers  -90 -7.125020027 -90
rthumb  -84.71902335 -9.418458689 -60.54056275
rfemur  -12.25686169 13.80471611 11.79268932
rtibia  -0.624350965 -1.513356566 18.96370888
rfoot  0.7363359928 -21.62955856 -36.49639511
rtoes  3.774924895 19.65485963 -101.0984333
lfemur  -4.93204546 -17.00219536 -23.06498528
ltibia  7.068349838 0.09686793387 6.931974888
lfoot  0.673001647 -22.35029602 34.87163925
ltoes  -8.648619581 -18.10278367 -116.0825151
247
root  34.92255023 36.57033425 -14.10568568 10.9708786 -1.873793364 4.360653877
lowerback  -8.147240639 1.030019999 0.9659273624
upperback  -4.353277206 1.900169969 -4.734749794
thorax  0.2478840053 1.125399947 -5.301839828
lowerneck  -11.66790009 -9.043510437 -4.855979919
upperneck  11.97649956 -12.8319006 7.743460178
head  6.371449947 -6.006519794 2.005259991
lclavicle  0 -4.497500157e-015 -2.743230041e-014
lhumerus  -48.48450089 30.29129982 60.52460098
lradius  0.01646927558 -6.507048965e-006 28.40014458
lwrist  3.192251654e-007 -3.790274832e-007 -31.21520042
lhand  -4.41239938e-031 -36.84379959 -10.32059956
lfingers  90 7.125020027 -90
lthumb  94.71496133 -25.16491572 100.9769476
rclavicle  0 -4.497500157e-015 -2.743230041e-014
rhumerus  51.34109879 -23.42939949 -48.82630157
rradius  -5.16745672e-007 2.214343908e-008 45.16749954
rwrist  0.0006954420824 -0.004670973402 -163.6399994
rhand  -0 3.52218008 -6.354489803
rfingers  -90 -7.125020027 -90
rthumb  -84.68567188 -9.501512572 -60.59862786
rfemur  -12.2574625 13.78562546 11.79243469
rtibia  -0.6185954809 -1.511750698 18.94686127
rfoot  0.7451300025 -21.64544678 -36.47289658
rtoes  3.784653718 19.65305997 -101.1273589
lfemur  -5.016974926 -16.97567368 -23.01381111
ltibia  7.010595322 0.1115857735 7.06313324
lfoot  0.6936391592 -22.42614937 34.89092255
ltoes  -8.662319993 -18.09640273 -116.1266147
248
root  34.92149293 36.57053549 -14.10347646 10.95919514 -1.881434083 4.361852646
lowerback  -8.138750076 0.9964671135 0.9126460552
upperback  -4.354444504 1.85860002 -4.724450111
thorax  0.2411929965 1.105180025 -5.264309883
lowerneck  -11.70330048 -9.019069672 -4.832439899
upperneck  11.99750042 -12.81210041 7.778759956
head  6.383900166 -5.993120193 2.012680054
lclavicle  0 -4.497500157e-015 -2.743230041e-014
lhumerus  -48.48360062 30.30550194 60.50870132
lradius  0.01566459797 -6.507048965e-006 28.40979767
lwrist  3.192251654e-007 -3.790274832e-007 -31.18980026
lhand  -4.415294033e-031 -36.89390182 -10.32139969
lfingers  90 7.125020027 -90
lthumb  94.73826947 -25.16407413 101.0304618
rclavicle  0 -4.497500157e-015 -2.743230041e-014
rhumerus  50.65319824 -23.43989944 -48.37139893
rradius  -5.16745672e-007 2.214343908e-008 45.93939972
rwrist  0.0006954420824 -0.004670973402 -164.7149963
rhand  -1.768815779e-031 3.475539923 -6.282149792
rfingers  -90 -7.125020027 -90
rthumb  -84.66092541 -9.562019113 -60.63822645
rfemur  -12.22678375 13.77230549 11.7931757
rtibia  -0.6107233167 -1.509637833 18.92372704
rfoot  0.7625699043 -21.65015221 -36.44111252
rtoes  3.790391064 19.6519964 -101.1444184
lfemur  -4.91932106 -16.9761467 -23.05541229
ltibia  7.072711945 0.09262726456 6.926355362
lfoot  0.6734505892 -22.33086395 34.88870621
ltoes  -8.672849986 -18.0914898 -116.1605194
249
root  34.92048068 36.57079682 -14.10030605 10.94874954 -1.886055589 4.36216259
lowerback  -8.112689972 0.9795479774 0.8969295621
upperback  -4.355671406 1.836689949 -4.721539974
thorax  0.2171929926 1.094099998 -5.254879951
lowerneck  -11.71339989 -9.004899979 -4.808549881
upperneck  12.01490021 -12.79609966 7.763219833
head  6.387519836 -5.984910011 2.005280018
lclavicle  0 -4.497500157e-015 -2.743230041e-014
lhumerus  -48.47380066 30.29199982 60.52600098
lradius  0.01483793743 -6.507048965e-006 28.40970421
lwrist  3.192251654e-007 -3.790274832e-007 -31.15119934
lhand  -4.413606046e-031 -36.86470032 -10.41149998
lfingers  90 7.125020027 -90
lthumb  94.74379234 -25.25346837 101.0074144
rclavicle  0 -4.497500157e-015 -2.743230041e-014
rhumerus  50.04979706 -23.52510071 -48.09970093
rradius  -5.16745672e-007 2.214343908e-008 46.65019989
rwrist  0.0006954420824 -0.004670973402 -165.4459991
rhand  -1.768208412e-031 3.134809971 -6.398590088
rfingers  -90 -7.125020027 -90
rthumb  -84.80008274 -9.442018363 -60.98087701
rfemur  -12.20006466 13.78719521 11.79592323
rtibia  -0.6038298011 -1.507152319 18.90331078
rfoot  0.762907207 -21.64892578 -36.46445465
rtoes  3.822881902 19.64594168 -101.2410435
lfemur  -4.73002243 -16.983675 -23.12901688
ltibia  7.198151588 0.08187910169 6.643365383
lfoot  0.6434575319 -22.20292282 34.89592361
ltoes  -8.664484546 -18.09539344 -116.1335835
250
root  34.91952551 36.57037029 -14.09888681 10.92195129 -1.882495642 4.362480164
lowerback  -8.127928734 0.9562399983 0.8680545688
upperback  -4.35686779 1.808519959 -4.717510223
thorax  0.2217569947 1.080800056 -5.236289978
lowerneck  -11.74569988 -8.98499012 -4.799439907
upperneck  12.06229973 -12.77979946 7.783750057
head  6.40790987 -5.974110126 2.009599924
lclavicle  0 -4.497500157e-015 -2.743230041e-014
lhumerus  -48.47980118 30.29899979 60.5298996
lradius  0.0139889922 -6.507048965e-006 28.4211998
lwrist  3.192251654e-007 -3.790274832e-007 -31.15259933
lhand  -4.417714381e-031 -36.93569946 -10.36779976
lfingers  90 7.125020027 -90
lthumb  94.76738127 -25.20814016 101.0791761
rclavicle  0 -4.497500157e-015 -2.743230041e-014
rhumerus  49.01569748 -23.38310051 -46.97129822
rradius  -5.16745672e-007 2.214343908e-008 47.69829941
rwrist  0.0006954420824 -0.004670973402 -166.8690033
rhand  -1.76810569e-031 3.073430061 -6.385650158
rfingers  -90 -7.125020027 -90
rthumb  -84.80828483 -9.450046879 -61.03988794
rfemur  -12.14885139 13.81318665 11.80334187
rtibia  -0.595010519 -1.502137184 18.87724876
rfoot  0.7712805867 -21.64608002 -36.48169708
rtoes  3.815900261 19.64724727 -101.2202782
lfemur  -4.52138567 -16.97960281 -23.2021122
ltibia  7.329487324 0.07067970932 6.345727921
lfoot  0.6169986129 -22.07095528 34.91052246
ltoes  -8.688315447 -18.08426057 -116.2103316
251
root  34.91753105 36.57049645 -14.09667308 10.90786076 -1.87116456 4.363708973
lowerback  -8.11823082 0.9420830607 0.8582864404
upperback  -4.357942104 1.790330052 -4.713354111
thorax  0.2148360014 1.071779966 -5.233819962
lowerneck  -11.7656002 -8.980250359 -4.796689987
upperneck  12.08520031 -12.78569984 7.827229977
head  6.42193985 -5.973859787 2.020469904
lclavicle  0 -4.497500157e-015 -2.743230041e-014
lhumerus  -48.41989899 30.28129768 60.54750061
lradius  0.01311745308 -6.507048965e-006 28.39149857
lwrist  3.192251654e-007 -3.790274832e-007 -31.15439987
lhand  -4.413016982e-031 -36.85449982 -10.36330032
lfingers  90 7.125020027 -90
lthumb  94.7288993 -25.20647527 100.9921953
rclavicle  0 -4.497500157e-015 -2.743230041e-014
rhumerus  48.13269806 -23.34829903 -46.17290115
rradius  -5.16745672e-007 2.214343908e-008 48.52750015
rwrist  0.0006954420824 -0.004670973402 -168.003006
rhand  -1.768291195e-031 3.183409929 -6.295129776
rfingers  -90 -7.125020027 -90
rthumb  -84.73757031 -9.535089944 -60.92499714
rfemur  -12.11472511 13.80313683 11.81295872
rtibia  -0.589443028 -1.496540308 18.86054993
rfoot  0.7820466161 -21.64429665 -36.47245789
rtoes  3.829791652 19.6446471 -101.2615962
lfemur  -4.335223198 -17.03186798 -23.27257347
ltibia  7.448708534 0.01590313017 6.079298973
lfoot  0.5757206082 -21.84589195 34.91305923
ltoes  -8.659185977 -18.09786351 -116.1165255
